# xmcd CD database file
#
# Track frame offsets:
#	150
#	19675
#	40267
#	53242
#	67422
#	111502
#	133090
#	148797
#	172650
#	200767
#
# Disc length: 3012 seconds
#
# Revision: 2
# Processed by: cddbd v1.5.2PL0 Copyright (c) Steve Scherf et al.
# Submitted via: CDex 1.70beta2
#
DISCID=9a0bc20a
DTITLE=Ben Harper and the Innocent Criminals - Lifeline (Bonus Materials)
DYEAR=2007
DGENRE=Blues
TTITLE0=Fight Outta You
TTITLE1=Say You Will
TTITLE2=In The Colors
TTITLE3=Needed You Tonight
TTITLE4=Whipping Boy
TTITLE5=Younger Than Today
TTITLE6=Fool For A Lonesome Train
TTITLE7=Heart Of Matters
TTITLE8=Welcome To The Cruel World
TTITLE9=Put It On Me
EXTD=YEAR: 2007
EXTT0=
EXTT1=
EXTT2=
EXTT3=
EXTT4=
EXTT5=
EXTT6=
EXTT7=
EXTT8=
EXTT9=
PLAYORDER=
